<?xml version="1.0" encoding="UTF-8"?>
<svg width="180" height="40" viewBox="0 0 180 40" fill="none" xmlns="http://www.w3.org/2000/svg">
  <!-- Градиент для логотипа -->
  <defs>
    <linearGradient id="logoGradient" x1="0%" y1="0%" x2="100%" y2="100%">
      <stop offset="0%" stop-color="#00c3ff" />
      <stop offset="100%" stop-color="#b300ff" />
    </linearGradient>
    <!-- Свечение для логотипа -->
    <filter id="glow" x="-20%" y="-20%" width="140%" height="140%">
      <feGaussianBlur stdDeviation="2" result="blur" />
      <feComposite in="SourceGraphic" in2="blur" operator="over" />
    </filter>
  </defs>
  
  <!-- Иконка AI -->
  <g filter="url(#glow)">
    <path d="M20 5C11.716 5 5 11.716 5 20C5 28.284 11.716 35 20 35C28.284 35 35 28.284 35 20C35 11.716 28.284 5 20 5ZM20 8C26.627 8 32 13.373 32 20C32 26.627 26.627 32 20 32C13.373 32 8 26.627 8 20C8 13.373 13.373 8 20 8Z" fill="url(#logoGradient)"/>
    <path d="M20 12C15.582 12 12 15.582 12 20C12 24.418 15.582 28 20 28C24.418 28 28 24.418 28 20C28 15.582 24.418 12 20 12ZM20 15C22.761 15 25 17.239 25 20C25 22.761 22.761 25 20 25C17.239 25 15 22.761 15 20C15 17.239 17.239 15 20 15Z" fill="url(#logoGradient)"/>
    <circle cx="20" cy="20" r="3" fill="url(#logoGradient)"/>
    
    <!-- Лучи от логотипа -->
    <path d="M20 2V8" stroke="url(#logoGradient)" stroke-width="1.5" stroke-linecap="round"/>
    <path d="M20 32V38" stroke="url(#logoGradient)" stroke-width="1.5" stroke-linecap="round"/>
    <path d="M2 20H8" stroke="url(#logoGradient)" stroke-width="1.5" stroke-linecap="round"/>
    <path d="M32 20H38" stroke="url(#logoGradient)" stroke-width="1.5" stroke-linecap="round"/>
    <path d="M6.34315 6.34315L10.8787 10.8787" stroke="url(#logoGradient)" stroke-width="1.5" stroke-linecap="round"/>
    <path d="M29.1213 29.1213L33.6569 33.6569" stroke="url(#logoGradient)" stroke-width="1.5" stroke-linecap="round"/>
    <path d="M6.34315 33.6569L10.8787 29.1213" stroke="url(#logoGradient)" stroke-width="1.5" stroke-linecap="round"/>
    <path d="M29.1213 10.8787L33.6569 6.34315" stroke="url(#logoGradient)" stroke-width="1.5" stroke-linecap="round"/>
  </g>
  
  <!-- Текст OptimaAI -->
  <g filter="url(#glow)">
    <path d="M50 15.5C50 13.0147 52.0147 11 54.5 11H59.5C61.9853 11 64 13.0147 64 15.5V24.5C64 26.9853 61.9853 29 59.5 29H54.5C52.0147 29 50 26.9853 50 24.5V15.5ZM54.5 14C53.6716 14 53 14.6716 53 15.5V24.5C53 25.3284 53.6716 26 54.5 26H59.5C60.3284 26 61 25.3284 61 24.5V15.5C61 14.6716 60.3284 14 59.5 14H54.5Z" fill="white"/>
    <path d="M66 11.5H69V20.5C69 23.5376 71.4624 26 74.5 26C77.5376 26 80 23.5376 80 20.5V11.5H83V20.5C83 25.1944 79.1944 29 74.5 29C69.8056 29 66 25.1944 66 20.5V11.5Z" fill="white"/>
    <path d="M86 11.5H89V14.5H95V11.5H98V29H95V17.5H89V29H86V11.5Z" fill="white"/>
    <path d="M101 11.5H104V29H101V11.5Z" fill="white"/>
    <path d="M107 11.5H110L117 23.5V11.5H120V29H117L110 17V29H107V11.5Z" fill="white"/>
    <path d="M123 20.25C123 15.1079 127.158 11 132.25 11C137.342 11 141.5 15.1079 141.5 20.25C141.5 25.3921 137.342 29.5 132.25 29.5C127.158 29.5 123 25.3921 123 20.25ZM126 20.25C126 23.7353 128.765 26.5 132.25 26.5C135.735 26.5 138.5 23.7353 138.5 20.25C138.5 16.7647 135.735 14 132.25 14C128.765 14 126 16.7647 126 20.25Z" fill="white"/>
    <path d="M144 11.5H150.5C155.194 11.5 159 15.3056 159 20C159 24.6944 155.194 28.5 150.5 28.5H144V11.5ZM147 14.5V25.5H150.5C153.538 25.5 156 23.0376 156 20C156 16.9624 153.538 14.5 150.5 14.5H147Z" fill="white"/>
    <path d="M161 11.5H164V29H161V11.5Z" fill="white"/>
  </g>
</svg> 