<svg width="120" height="120" viewBox="0 0 120 120" fill="none" xmlns="http://www.w3.org/2000/svg">
  <rect width="120" height="120" rx="60" fill="#0A0F1E"/>
  <path d="M40 40L50 80H55L65 50L75 80H80L90 40H83L77 67L68 40H62L53 67L47 40H40Z" fill="#00F0FF"/>
  <path d="M30 60C30 43.4315 43.4315 30 60 30C76.5685 30 90 43.4315 90 60C90 76.5685 76.5685 90 60 90C43.4315 90 30 76.5685 30 60ZM60 36C46.7452 36 36 46.7452 36 60C36 73.2548 46.7452 84 60 84C73.2548 84 84 73.2548 84 60C84 46.7452 73.2548 36 60 36Z" fill="#00F0FF"/>
</svg> 