<svg width="120" height="120" viewBox="0 0 120 120" fill="none" xmlns="http://www.w3.org/2000/svg">
  <rect width="120" height="120" rx="60" fill="#0A0F1E"/>
  <path d="M60 30C43.4315 30 30 43.4315 30 60C30 76.5685 43.4315 90 60 90C76.5685 90 90 76.5685 90 60C90 43.4315 76.5685 30 60 30ZM30.9677 63.871C30.3226 62.5806 30 61.1613 30 59.6774C30 54.1935 34.5161 49.6774 40 49.6774C41.4839 49.6774 42.9032 50 44.1935 50.6452V41.2903C44.1935 40.3226 44.8387 39.6774 45.8065 39.6774C46.7742 39.6774 47.4194 40.3226 47.4194 41.2903V59.6774C47.4194 60.6452 46.7742 61.2903 45.8065 61.2903C44.8387 61.2903 44.1935 60.6452 44.1935 59.6774C44.1935 55.8065 40.9677 52.9032 37.0968 52.9032C33.2258 52.9032 30 55.8065 30 59.6774C30 60.6452 30.3226 61.6129 30.6452 62.2581C30.9677 62.9032 30.9677 63.5484 30.6452 63.871C30.3226 64.1935 30 64.1935 29.6774 64.1935C30.3226 64.1935 30.6452 64.1935 30.9677 63.871ZM60 86.7742C50.9677 86.7742 43.5484 79.3548 43.5484 70.3226C43.5484 61.2903 50.9677 53.871 60 53.871C69.0323 53.871 76.4516 61.2903 76.4516 70.3226C76.4516 79.3548 69.0323 86.7742 60 86.7742ZM89.0323 63.871C89.6774 62.5806 90 61.1613 90 59.6774C90 54.1935 85.4839 49.6774 80 49.6774C78.5161 49.6774 77.0968 50 75.8065 50.6452V41.2903C75.8065 40.3226 75.1613 39.6774 74.1935 39.6774C73.2258 39.6774 72.5806 40.3226 72.5806 41.2903V59.6774C72.5806 60.6452 73.2258 61.2903 74.1935 61.2903C75.1613 61.2903 75.8065 60.6452 75.8065 59.6774C75.8065 55.8065 79.0323 52.9032 82.9032 52.9032C86.7742 52.9032 90 55.8065 90 59.6774C90 60.6452 89.6774 61.6129 89.3548 62.2581C89.0323 62.9032 89.0323 63.5484 89.3548 63.871C89.6774 64.1935 90 64.1935 90.3226 64.1935C89.6774 64.1935 89.3548 64.1935 89.0323 63.871ZM60 57.0968C52.7419 57.0968 46.7742 63.0645 46.7742 70.3226C46.7742 77.5806 52.7419 83.5484 60 83.5484C67.2581 83.5484 73.2258 77.5806 73.2258 70.3226C73.2258 63.0645 67.2581 57.0968 60 57.0968ZM60 80.3226C54.5161 80.3226 50 75.8065 50 70.3226C50 64.8387 54.5161 60.3226 60 60.3226C65.4839 60.3226 70 64.8387 70 70.3226C70 75.8065 65.4839 80.3226 60 80.3226Z" fill="#00F0FF"/>
</svg> 