<svg xmlns="http://www.w3.org/2000/svg" width="800" height="400" viewBox="0 0 800 400">
  <rect width="800" height="400" fill="#f8f9fa"/>
  
  <!-- Фон для иллюстрации -->
  <rect x="100" y="50" width="600" height="300" rx="20" ry="20" fill="#e9ecef"/>
  
  <!-- Центральный элемент - интеграция бизнес-процессов и ИИ -->
  <g transform="translate(400, 200)">
    <!-- Шестеренки (бизнес-процессы) -->
    <g transform="translate(-80, 0)">
      <circle cx="0" cy="0" r="50" fill="#4e73df" opacity="0.7"/>
      <circle cx="0" cy="0" r="40" fill="#ffffff" opacity="0.8"/>
      <circle cx="0" cy="0" r="10" fill="#4e73df" opacity="0.7"/>
      
      <!-- Зубцы шестеренки -->
      <g stroke="#4e73df" stroke-width="8">
        <line x1="0" y1="-40" x2="0" y2="-55" />
        <line x1="28" y1="-28" x2="39" y2="-39" />
        <line x1="40" y1="0" x2="55" y2="0" />
        <line x1="28" y1="28" x2="39" y2="39" />
        <line x1="0" y1="40" x2="0" y2="55" />
        <line x1="-28" y1="28" x2="-39" y2="39" />
        <line x1="-40" y1="0" x2="-55" y2="0" />
        <line x1="-28" y1="-28" x2="-39" y2="-39" />
      </g>
    </g>
    
    <!-- Нейросеть (мозг/сеть) -->
    <g transform="translate(80, 0)">
      <circle cx="0" cy="0" r="50" fill="#4e73df" opacity="0.7"/>
      
      <!-- Нейронные связи -->
      <g stroke="#ffffff" stroke-width="2">
        <line x1="-30" y1="-30" x2="30" y2="30" />
        <line x1="30" y1="-30" x2="-30" y2="30" />
        <line x1="0" y1="-40" x2="0" y2="40" />
        <line x1="-40" y1="0" x2="40" y2="0" />
      </g>
      
      <!-- Нейроны -->
      <g fill="#ffffff">
        <circle cx="-30" cy="-30" r="5" />
        <circle cx="30" cy="-30" r="5" />
        <circle cx="30" cy="30" r="5" />
        <circle cx="-30" cy="30" r="5" />
        <circle cx="0" cy="0" r="8" />
        <circle cx="0" cy="-40" r="5" />
        <circle cx="0" cy="40" r="5" />
        <circle cx="-40" cy="0" r="5" />
        <circle cx="40" cy="0" r="5" />
      </g>
    </g>
    
    <!-- Соединительная линия между шестеренкой и нейросетью -->
    <line x1="-20" y1="0" x2="20" y2="0" stroke="#4e73df" stroke-width="5" stroke-dasharray="5,5"/>
  </g>
  
  <!-- Декоративные элементы - документы и данные -->
  <g transform="translate(200, 100)">
    <rect x="0" y="0" width="30" height="40" fill="#4e73df" opacity="0.3"/>
    <rect x="5" y="-5" width="30" height="40" fill="#4e73df" opacity="0.3"/>
    <rect x="10" y="-10" width="30" height="40" fill="#4e73df" opacity="0.3"/>
  </g>
  
  <g transform="translate(570, 300)">
    <rect x="0" y="0" width="30" height="40" fill="#4e73df" opacity="0.3"/>
    <rect x="5" y="-5" width="30" height="40" fill="#4e73df" opacity="0.3"/>
    <rect x="10" y="-10" width="30" height="40" fill="#4e73df" opacity="0.3"/>
  </g>
  
  <!-- Соединительные линии -->
  <g stroke="#4e73df" stroke-width="2" opacity="0.5">
    <line x1="250" y1="120" x2="320" y2="180"/>
    <line x1="550" y1="120" x2="480" y2="180"/>
    <line x1="250" y1="280" x2="320" y2="220"/>
    <line x1="550" y1="280" x2="480" y2="220"/>
  </g>
  
  <!-- Декоративные элементы -->
  <g fill="#4e73df" opacity="0.2">
    <circle cx="150" cy="100" r="20"/>
    <circle cx="650" cy="100" r="20"/>
    <circle cx="150" cy="300" r="20"/>
    <circle cx="650" cy="300" r="20"/>
  </g>
</svg> 