<svg width="500" height="400" viewBox="0 0 500 400" fill="none" xmlns="http://www.w3.org/2000/svg">
  <!-- Фон с градиентом -->
  <defs>
    <linearGradient id="bgGradient" x1="0%" y1="0%" x2="100%" y2="100%">
      <stop offset="0%" stop-color="#0A0F1E" stop-opacity="0.1"/>
      <stop offset="100%" stop-color="#0A0F1E" stop-opacity="0"/>
    </linearGradient>
    <linearGradient id="glowGradient" x1="50%" y1="0%" x2="50%" y2="100%">
      <stop offset="0%" stop-color="#00F0FF" stop-opacity="0.2"/>
      <stop offset="100%" stop-color="#00F0FF" stop-opacity="0"/>
    </linearGradient>
    <filter id="glow" x="-50%" y="-50%" width="200%" height="200%">
      <feGaussianBlur in="SourceGraphic" stdDeviation="10" result="blur"/>
      <feComposite in="blur" operator="over" in2="SourceGraphic"/>
    </filter>
  </defs>
  
  <!-- Фоновый прямоугольник -->
  <rect width="500" height="400" fill="url(#bgGradient)" rx="20"/>
  
  <!-- Сетка -->
  <g opacity="0.1" stroke="#00F0FF" stroke-width="0.5">
    <line x1="50" y1="0" x2="50" y2="400"/>
    <line x1="100" y1="0" x2="100" y2="400"/>
    <line x1="150" y1="0" x2="150" y2="400"/>
    <line x1="200" y1="0" x2="200" y2="400"/>
    <line x1="250" y1="0" x2="250" y2="400"/>
    <line x1="300" y1="0" x2="300" y2="400"/>
    <line x1="350" y1="0" x2="350" y2="400"/>
    <line x1="400" y1="0" x2="400" y2="400"/>
    <line x1="450" y1="0" x2="450" y2="400"/>
    
    <line x1="0" y1="50" x2="500" y2="50"/>
    <line x1="0" y1="100" x2="500" y2="100"/>
    <line x1="0" y1="150" x2="500" y2="150"/>
    <line x1="0" y1="200" x2="500" y2="200"/>
    <line x1="0" y1="250" x2="500" y2="250"/>
    <line x1="0" y1="300" x2="500" y2="300"/>
    <line x1="0" y1="350" x2="500" y2="350"/>
  </g>
  
  <!-- Основная иллюстрация -->
  <!-- Голова с мозгом -->
  <g transform="translate(150, 80)">
    <path d="M100,0 C155,0 200,45 200,100 C200,155 155,200 100,200 C45,200 0,155 0,100 C0,45 45,0 100,0 Z" fill="#0A0F1E" stroke="#00F0FF" stroke-width="2"/>
    
    <!-- Мозг -->
    <g transform="translate(40, 40)" filter="url(#glow)">
      <path d="M30,0 C40,10 60,5 70,15 C80,25 90,15 100,25 C110,35 120,30 120,45 C120,60 110,70 100,80 C90,90 80,100 60,100 C40,100 30,90 20,80 C10,70 0,60 0,45 C0,30 10,20 20,10 C30,0 20,-10 30,0 Z" fill="none" stroke="#00F0FF" stroke-width="1.5"/>
      
      <!-- Нейронные связи -->
      <line x1="20" y1="20" x2="40" y2="30" stroke="#00F0FF" stroke-width="1"/>
      <line x1="40" y1="30" x2="60" y2="20" stroke="#00F0FF" stroke-width="1"/>
      <line x1="60" y1="20" x2="80" y2="30" stroke="#00F0FF" stroke-width="1"/>
      <line x1="80" y1="30" x2="100" y2="20" stroke="#00F0FF" stroke-width="1"/>
      
      <line x1="20" y1="40" x2="40" y2="50" stroke="#00F0FF" stroke-width="1"/>
      <line x1="40" y1="50" x2="60" y2="40" stroke="#00F0FF" stroke-width="1"/>
      <line x1="60" y1="40" x2="80" y2="50" stroke="#00F0FF" stroke-width="1"/>
      <line x1="80" y1="50" x2="100" y2="40" stroke="#00F0FF" stroke-width="1"/>
      
      <line x1="20" y1="60" x2="40" y2="70" stroke="#00F0FF" stroke-width="1"/>
      <line x1="40" y1="70" x2="60" y2="60" stroke="#00F0FF" stroke-width="1"/>
      <line x1="60" y1="60" x2="80" y2="70" stroke="#00F0FF" stroke-width="1"/>
      <line x1="80" y1="70" x2="100" y2="60" stroke="#00F0FF" stroke-width="1"/>
      
      <!-- Нейроны -->
      <circle cx="20" cy="20" r="3" fill="#00F0FF"/>
      <circle cx="40" cy="30" r="3" fill="#00F0FF"/>
      <circle cx="60" cy="20" r="3" fill="#00F0FF"/>
      <circle cx="80" cy="30" r="3" fill="#00F0FF"/>
      <circle cx="100" cy="20" r="3" fill="#00F0FF"/>
      
      <circle cx="20" cy="40" r="3" fill="#00F0FF"/>
      <circle cx="40" cy="50" r="3" fill="#00F0FF"/>
      <circle cx="60" cy="40" r="3" fill="#00F0FF"/>
      <circle cx="80" cy="50" r="3" fill="#00F0FF"/>
      <circle cx="100" cy="40" r="3" fill="#00F0FF"/>
      
      <circle cx="20" cy="60" r="3" fill="#00F0FF"/>
      <circle cx="40" cy="70" r="3" fill="#00F0FF"/>
      <circle cx="60" cy="60" r="3" fill="#00F0FF"/>
      <circle cx="80" cy="70" r="3" fill="#00F0FF"/>
      <circle cx="100" cy="60" r="3" fill="#00F0FF"/>
    </g>
  </g>
  
  <!-- Книга -->
  <g transform="translate(100, 250)">
    <path d="M0,0 L150,0 L150,20 L0,20 Z" fill="#0A0F1E" stroke="#00F0FF" stroke-width="2"/>
    <path d="M0,0 L0,20 L150,20 L150,0 C120,10 90,15 75,15 C60,15 30,10 0,0 Z" fill="#0A0F1E" stroke="#00F0FF" stroke-width="2"/>
    <path d="M75,0 L75,20" stroke="#00F0FF" stroke-width="1"/>
    <path d="M30,5 L120,5" stroke="#00F0FF" stroke-width="1" opacity="0.5"/>
    <path d="M40,10 L110,10" stroke="#00F0FF" stroke-width="1" opacity="0.5"/>
    <path d="M50,15 L100,15" stroke="#00F0FF" stroke-width="1" opacity="0.5"/>
  </g>
  
  <!-- Лампочка идеи -->
  <g transform="translate(300, 250)">
    <circle cx="25" cy="25" r="25" fill="none" stroke="#00F0FF" stroke-width="2" filter="url(#glow)"/>
    <path d="M25,0 L25,10 M0,25 L10,25 M50,25 L40,25 M10,10 L17,17 M40,10 L33,17 M10,40 L17,33 M40,40 L33,33" stroke="#00F0FF" stroke-width="2"/>
    <circle cx="25" cy="25" r="10" fill="#00F0FF" opacity="0.3"/>
  </g>
  
  <!-- Анимированные частицы -->
  <g opacity="0.5">
    <circle cx="100" cy="100" r="2" fill="#00F0FF">
      <animate attributeName="opacity" values="0;1;0" dur="3s" repeatCount="indefinite"/>
    </circle>
    <circle cx="400" cy="100" r="2" fill="#00F0FF">
      <animate attributeName="opacity" values="0;1;0" dur="2s" repeatCount="indefinite"/>
    </circle>
    <circle cx="250" cy="350" r="2" fill="#00F0FF">
      <animate attributeName="opacity" values="0;1;0" dur="4s" repeatCount="indefinite"/>
    </circle>
    <circle cx="150" cy="300" r="2" fill="#00F0FF">
      <animate attributeName="opacity" values="0;1;0" dur="3.5s" repeatCount="indefinite"/>
    </circle>
    <circle cx="350" cy="300" r="2" fill="#00F0FF">
      <animate attributeName="opacity" values="0;1;0" dur="2.5s" repeatCount="indefinite"/>
    </circle>
  </g>
</svg> 