<svg xmlns="http://www.w3.org/2000/svg" width="800" height="400" viewBox="0 0 800 400">
  <rect width="800" height="400" fill="#f8f9fa"/>
  
  <!-- Фон для иллюстрации -->
  <rect x="100" y="50" width="600" height="300" rx="20" ry="20" fill="#e9ecef"/>
  
  <!-- Центральный элемент - книга и мозг -->
  <g transform="translate(400, 200)">
    <!-- Книга -->
    <rect x="-80" y="-60" width="160" height="120" rx="5" ry="5" fill="#4e73df" opacity="0.8"/>
    <rect x="-75" y="-55" width="150" height="110" rx="3" ry="3" fill="#ffffff" opacity="0.9"/>
    
    <!-- Страницы книги -->
    <path d="M0 -55 L0 55" stroke="#4e73df" stroke-width="2" opacity="0.5"/>
    <path d="M-60 -30 L-15 -30" stroke="#4e73df" stroke-width="2" opacity="0.3"/>
    <path d="M-60 -15 L-15 -15" stroke="#4e73df" stroke-width="2" opacity="0.3"/>
    <path d="M-60 0 L-15 0" stroke="#4e73df" stroke-width="2" opacity="0.3"/>
    <path d="M-60 15 L-15 15" stroke="#4e73df" stroke-width="2" opacity="0.3"/>
    <path d="M-60 30 L-15 30" stroke="#4e73df" stroke-width="2" opacity="0.3"/>
    
    <path d="M15 -30 L60 -30" stroke="#4e73df" stroke-width="2" opacity="0.3"/>
    <path d="M15 -15 L60 -15" stroke="#4e73df" stroke-width="2" opacity="0.3"/>
    <path d="M15 0 L60 0" stroke="#4e73df" stroke-width="2" opacity="0.3"/>
    <path d="M15 15 L60 15" stroke="#4e73df" stroke-width="2" opacity="0.3"/>
    <path d="M15 30 L60 30" stroke="#4e73df" stroke-width="2" opacity="0.3"/>
    
    <!-- Лампочка (символ идеи) -->
    <circle cx="0" cy="-100" r="30" fill="#4e73df" opacity="0.7"/>
    <circle cx="0" cy="-100" r="20" fill="#ffffff" opacity="0.9"/>
    <path d="M0 -70 L0 -50" stroke="#4e73df" stroke-width="3"/>
    
    <!-- Лучи от лампочки -->
    <path d="M-25 -125 L-40 -140" stroke="#4e73df" stroke-width="2"/>
    <path d="M25 -125 L40 -140" stroke="#4e73df" stroke-width="2"/>
    <path d="M-35 -100 L-55 -100" stroke="#4e73df" stroke-width="2"/>
    <path d="M35 -100 L55 -100" stroke="#4e73df" stroke-width="2"/>
  </g>
  
  <!-- Соединительные линии -->
  <g stroke="#4e73df" stroke-width="2" opacity="0.5">
    <line x1="300" y1="100" x2="350" y2="150"/>
    <line x1="500" y1="100" x2="450" y2="150"/>
    <line x1="300" y1="300" x2="350" y2="250"/>
    <line x1="500" y1="300" x2="450" y2="250"/>
  </g>
  
  <!-- Декоративные элементы -->
  <g fill="#4e73df" opacity="0.2">
    <circle cx="150" cy="100" r="20"/>
    <circle cx="650" cy="100" r="20"/>
    <circle cx="150" cy="300" r="20"/>
    <circle cx="650" cy="300" r="20"/>
  </g>
</svg> 