<svg xmlns="http://www.w3.org/2000/svg" width="800" height="400" viewBox="0 0 800 400">
  <rect width="800" height="400" fill="#f8f9fa"/>
  
  <!-- Фон для иллюстрации -->
  <rect x="100" y="50" width="600" height="300" rx="20" ry="20" fill="#e9ecef"/>
  
  <!-- Центральный элемент - мозг/нейросеть и ключ -->
  <g transform="translate(400, 200)">
    <!-- Основа мозга/нейросети -->
    <ellipse cx="0" cy="0" rx="80" ry="60" fill="#4e73df" opacity="0.8"/>
    
    <!-- Нейронные связи -->
    <g stroke="#ffffff" stroke-width="2" opacity="0.7">
      <line x1="-50" y1="-30" x2="0" y2="0" />
      <line x1="-40" y1="-40" x2="20" y2="-20" />
      <line x1="-30" y1="40" x2="30" y2="10" />
      <line x1="50" y1="-30" x2="10" y2="20" />
      <line x1="40" y1="40" x2="-10" y2="30" />
      <line x1="0" y1="-50" x2="0" y2="0" />
    </g>
    
    <!-- Нейроны -->
    <g fill="#ffffff">
      <circle cx="-50" cy="-30" r="6" />
      <circle cx="-40" cy="-40" r="6" />
      <circle cx="-30" cy="40" r="6" />
      <circle cx="50" cy="-30" r="6" />
      <circle cx="40" cy="40" r="6" />
      <circle cx="0" cy="-50" r="6" />
      <circle cx="0" cy="0" r="10" />
    </g>
    
    <!-- Ключ -->
    <g transform="translate(120, 0) rotate(45)">
      <!-- Кольцо ключа -->
      <circle cx="0" cy="0" r="25" stroke="#4e73df" stroke-width="8" fill="none"/>
      
      <!-- Стержень ключа -->
      <rect x="-5" y="25" width="10" height="60" fill="#4e73df"/>
      
      <!-- Зубцы ключа -->
      <rect x="-15" y="70" width="30" height="10" fill="#4e73df"/>
      <rect x="-10" y="80" width="5" height="10" fill="#4e73df"/>
      <rect x="5" y="80" width="5" height="10" fill="#4e73df"/>
    </g>
  </g>
  
  <!-- Декоративные элементы - настройки -->
  <g transform="translate(200, 100)">
    <circle cx="0" cy="0" r="25" fill="#4e73df" opacity="0.3"/>
    <circle cx="0" cy="0" r="15" fill="#ffffff" opacity="0.8"/>
    <g stroke="#4e73df" stroke-width="3">
      <line x1="0" y1="-15" x2="0" y2="-25" />
      <line x1="10.6" y1="-10.6" x2="17.7" y2="-17.7" />
      <line x1="15" y1="0" x2="25" y2="0" />
      <line x1="10.6" y1="10.6" x2="17.7" y2="17.7" />
      <line x1="0" y1="15" x2="0" y2="25" />
      <line x1="-10.6" y1="10.6" x2="-17.7" y2="17.7" />
      <line x1="-15" y1="0" x2="-25" y2="0" />
      <line x1="-10.6" y1="-10.6" x2="-17.7" y2="-17.7" />
    </g>
  </g>
  
  <g transform="translate(600, 300)">
    <circle cx="0" cy="0" r="25" fill="#4e73df" opacity="0.3"/>
    <circle cx="0" cy="0" r="15" fill="#ffffff" opacity="0.8"/>
    <g stroke="#4e73df" stroke-width="3">
      <line x1="0" y1="-15" x2="0" y2="-25" />
      <line x1="10.6" y1="-10.6" x2="17.7" y2="-17.7" />
      <line x1="15" y1="0" x2="25" y2="0" />
      <line x1="10.6" y1="10.6" x2="17.7" y2="17.7" />
      <line x1="0" y1="15" x2="0" y2="25" />
      <line x1="-10.6" y1="10.6" x2="-17.7" y2="17.7" />
      <line x1="-15" y1="0" x2="-25" y2="0" />
      <line x1="-10.6" y1="-10.6" x2="-17.7" y2="-17.7" />
    </g>
  </g>
  
  <!-- Соединительные линии -->
  <g stroke="#4e73df" stroke-width="2" opacity="0.5">
    <line x1="250" y1="120" x2="320" y2="180"/>
    <line x1="550" y1="120" x2="480" y2="180"/>
    <line x1="250" y1="280" x2="320" y2="220"/>
    <line x1="550" y1="280" x2="480" y2="220"/>
  </g>
  
  <!-- Декоративные элементы -->
  <g fill="#4e73df" opacity="0.2">
    <circle cx="150" cy="100" r="20"/>
    <circle cx="650" cy="100" r="20"/>
    <circle cx="150" cy="300" r="20"/>
    <circle cx="650" cy="300" r="20"/>
  </g>
</svg> 