<svg xmlns="http://www.w3.org/2000/svg" viewBox="0 0 200 200" width="200" height="200">
  <!-- Стили для анимации -->
  <style>
    @keyframes float {
      0%, 100% { transform: translateY(0); }
      50% { transform: translateY(-5px); }
    }
    @keyframes blink {
      0%, 100% { opacity: 1; }
      50% { opacity: 0.2; }
    }
    @keyframes antenna-move {
      0%, 100% { transform: rotate(0deg); }
      25% { transform: rotate(-5deg); }
      75% { transform: rotate(5deg); }
    }
    @keyframes arm-wave {
      0%, 100% { transform: rotate(0deg); }
      50% { transform: rotate(-15deg); }
    }
    .robot-body {
      animation: float 3s ease-in-out infinite;
    }
    .eye {
      animation: blink 2s ease-in-out infinite;
    }
    .antenna {
      animation: antenna-move 4s ease-in-out infinite;
      transform-origin: bottom center;
    }
    .arm-right {
      animation: arm-wave 2s ease-in-out infinite;
      transform-origin: top center;
    }
  </style>

  <!-- Робот -->
  <g class="robot-body">
    <!-- Голова -->
    <rect x="60" y="40" width="80" height="70" rx="15" fill="#0a2463" />
    
    <!-- Антенна -->
    <g class="antenna">
      <rect x="95" y="25" width="10" height="15" fill="#0a2463" />
      <circle cx="100" cy="20" r="8" fill="#3cb371" />
    </g>
    
    <!-- Глаза -->
    <circle class="eye" cx="80" cy="65" r="10" fill="#ffffff" />
    <circle class="eye" cx="120" cy="65" r="10" fill="#ffffff" />
    <circle cx="80" cy="65" r="5" fill="#3cb371" />
    <circle cx="120" cy="65" r="5" fill="#3cb371" />
    
    <!-- Рот -->
    <rect x="75" y="90" width="50" height="5" rx="2" fill="#ffffff" />
    
    <!-- Тело -->
    <rect x="70" y="110" width="60" height="50" rx="10" fill="#0a2463" />
    
    <!-- Руки -->
    <rect x="50" y="115" width="20" height="10" rx="5" fill="#0a2463" />
    <g class="arm-right">
      <rect x="130" y="115" width="20" height="10" rx="5" fill="#0a2463" />
    </g>
    
    <!-- Ноги -->
    <rect x="80" y="160" width="15" height="20" rx="5" fill="#0a2463" />
    <rect x="105" y="160" width="15" height="20" rx="5" fill="#0a2463" />
    
    <!-- Детали -->
    <circle cx="100" cy="130" r="8" fill="#3cb371" />
    <rect x="85" y="145" width="30" height="5" rx="2" fill="#ffffff" />
  </g>
</svg> 